<svg width="12" height="21" viewBox="0 0 12 21" fill="none" xmlns="http://www.w3.org/2000/svg">
<path d="M1 20.0486C0.666667 19.4411 0.416667 18.6968 0.25 17.8159C0.0833333 16.935 0 16.0389 0 15.1276C0 13.6239 0.183333 12.3823 0.55 11.4026C0.916667 10.423 1.4 9.65978 2 9.113V4.5565L5 0H7L10 4.5565V9.113C10.6167 9.65978 11.1042 10.423 11.4625 11.4026C11.8208 12.3823 12 13.6239 12 15.1276C12 16.0389 11.9167 16.935 11.75 17.8159C11.5833 18.6968 11.3333 19.4411 11 20.0486C10.3 19.8512 9.74167 19.4904 9.325 18.9664C8.90833 18.4424 8.70833 17.8463 8.725 17.178C8.725 16.7983 8.77083 16.3882 8.8625 15.9478C8.95417 15.5073 9 15.0668 9 14.6264C9 13.7454 8.7375 12.819 8.2125 11.8469C7.6875 10.8748 6.95 9.96355 6 9.113C5.06667 9.96355 4.33333 10.8748 3.8 11.8469C3.26667 12.819 3 13.7454 3 14.6264C3 15.0668 3.05 15.5073 3.15 15.9478C3.25 16.3882 3.30833 16.7983 3.325 17.178C3.325 17.8463 3.1125 18.4462 2.6875 18.9778C2.2625 19.5094 1.7 19.8663 1 20.0486ZM6 6.3791C5.71667 6.3791 5.47917 6.29177 5.2875 6.1171C5.09583 5.94244 5 5.726 5 5.4678C5 5.30073 5.04167 5.14885 5.125 5.01215C5.20833 4.87546 5.33333 4.76914 5.5 4.6932V2.75668L4 5.05772V7.2904H8V5.05772L6.5 2.75668V4.6932C6.66667 4.76914 6.79167 4.87546 6.875 5.01215C6.95833 5.14885 7 5.30073 7 5.4678C7 5.726 6.90417 5.94244 6.7125 6.1171C6.52083 6.29177 6.28333 6.3791 6 6.3791Z" fill="#FFB528"/>
</svg>
