<svg width="18" height="17" viewBox="0 0 18 17" fill="none" xmlns="http://www.w3.org/2000/svg">
<path d="M14.15 16.13L8.1 10.5711C7.76667 10.6926 7.42917 10.7837 7.0875 10.8445C6.74583 10.9052 6.38333 10.9356 6 10.9356C4.33333 10.9356 2.91667 10.404 1.75 9.34083C0.583333 8.27764 0 6.98663 0 5.4678C0 4.92102 0.0833333 4.40082 0.25 3.9072C0.416667 3.41358 0.65 2.94654 0.95 2.50608L4.6 5.83232L6.4 4.19198L2.75 0.865735C3.23333 0.592345 3.74583 0.379708 4.2875 0.227825C4.82917 0.0759417 5.4 0 6 0C7.66667 0 9.08333 0.531592 10.25 1.59478C11.4167 2.65796 12 3.94897 12 5.4678C12 5.81713 11.9667 6.14748 11.9 6.45884C11.8333 6.7702 11.7333 7.07776 11.6 7.38153L17.7 12.8949C17.9 13.0772 18 13.2974 18 13.5556C18 13.8138 17.9 14.034 17.7 14.2163L15.6 16.13C15.4 16.3123 15.1583 16.4034 14.875 16.4034C14.5917 16.4034 14.35 16.3123 14.15 16.13ZM14.875 14.1935L15.55 13.5784L9.15 7.74605C9.45 7.44228 9.66667 7.08916 9.8 6.68666C9.93333 6.28417 10 5.87789 10 5.4678C10 4.5565 9.67917 3.76291 9.0375 3.08703C8.39583 2.41115 7.6 2.00486 6.65 1.86817L8.5 3.55407C8.7 3.73633 8.8 3.94897 8.8 4.19198C8.8 4.43499 8.7 4.64763 8.5 4.82989L5.3 7.74605C5.1 7.92831 4.86667 8.01944 4.6 8.01944C4.33333 8.01944 4.1 7.92831 3.9 7.74605L2.05 6.06015C2.2 6.92588 2.64583 7.65112 3.3875 8.23588C4.12917 8.82063 5 9.113 6 9.113C6.43333 9.113 6.86667 9.05225 7.3 8.93074C7.73333 8.80923 8.125 8.61938 8.475 8.36118L14.875 14.1935Z" fill="#FFB528"/>
</svg>
