<svg width="21" height="17" viewBox="0 0 21 17" fill="none" xmlns="http://www.w3.org/2000/svg">
<path d="M4 14.5808H10V13.6695H4V14.5808ZM4.75 6.3791H9.25C9.45 6.3791 9.625 6.31075 9.775 6.17406C9.925 6.03736 10 5.87789 10 5.69563C10 5.51337 9.925 5.35389 9.775 5.21719C9.625 5.0805 9.45 5.01215 9.25 5.01215H4.75C4.55 5.01215 4.375 5.0805 4.225 5.21719C4.075 5.35389 4 5.51337 4 5.69563C4 5.87789 4.075 6.03736 4.225 6.17406C4.375 6.31075 4.55 6.3791 4.75 6.3791ZM4.75 4.10085H9.25C9.45 4.10085 9.625 4.0325 9.775 3.89581C9.925 3.75911 10 3.59964 10 3.41738C10 3.23512 9.925 3.07564 9.775 2.93894C9.625 2.80225 9.45 2.7339 9.25 2.7339H4.75C4.55 2.7339 4.375 2.80225 4.225 2.93894C4.075 3.07564 4 3.23512 4 3.41738C4 3.59964 4.075 3.75911 4.225 3.89581C4.375 4.0325 4.55 4.10085 4.75 4.10085ZM14 7.2904V5.4678H16V3.6452H14V1.8226H16C16.55 1.8226 17.0208 2.00106 17.4125 2.35799C17.8042 2.71492 18 3.14399 18 3.6452H20C20.2833 3.6452 20.5208 3.73253 20.7125 3.9072C20.9042 4.08186 21 4.2983 21 4.5565C21 4.8147 20.9042 5.03114 20.7125 5.2058C20.5208 5.38047 20.2833 5.4678 20 5.4678H18C18 5.96902 17.8042 6.39809 17.4125 6.75501C17.0208 7.11194 16.55 7.2904 16 7.2904H14ZM10 11.8469H8V7.2904H12V1.8226H4C3.45 1.8226 2.97917 2.00106 2.5875 2.35799C2.19583 2.71492 2 3.14399 2 3.6452V5.4678C2 5.96902 2.19583 6.39809 2.5875 6.75501C2.97917 7.11194 3.45 7.2904 4 7.2904H6V11.8469H4V9.113C2.9 9.113 1.95833 8.75607 1.175 8.04222C0.391667 7.32837 0 6.47023 0 5.4678V3.6452C0 2.64277 0.391667 1.78463 1.175 1.07078C1.95833 0.356926 2.9 0 4 0H12C12.55 0 13.0208 0.178463 13.4125 0.535389C13.8042 0.892315 14 1.32139 14 1.8226V7.2904C14 7.79162 13.8042 8.22069 13.4125 8.57761C13.0208 8.93454 12.55 9.113 12 9.113H10V11.8469ZM3.5 16.4034C3.08333 16.4034 2.72917 16.2705 2.4375 16.0047C2.14583 15.7389 2 15.4162 2 15.0365V13.2139C2 12.8341 2.14583 12.5114 2.4375 12.2456C2.72917 11.9798 3.08333 11.8469 3.5 11.8469H10.5C10.9167 11.8469 11.2708 11.9798 11.5625 12.2456C11.8542 12.5114 12 12.8341 12 13.2139V15.0365C12 15.4162 11.8542 15.7389 11.5625 16.0047C11.2708 16.2705 10.9167 16.4034 10.5 16.4034H3.5Z" fill="#FFB528"/>
</svg>
