<svg width="20" height="20" viewBox="0 0 20 20" fill="none" xmlns="http://www.w3.org/2000/svg">
<path d="M16.85 19.1145C16.7167 19.1145 16.5917 19.0955 16.475 19.0576C16.3583 19.0196 16.25 18.955 16.15 18.8639L11.05 14.2163C10.95 14.1252 10.8792 14.0264 10.8375 13.9201C10.7958 13.8138 10.775 13.6999 10.775 13.5784C10.775 13.4569 10.7958 13.343 10.8375 13.2366C10.8792 13.1303 10.95 13.0316 11.05 12.9405L13.175 11.0039C13.275 10.9128 13.3833 10.8483 13.5 10.8103C13.6167 10.7723 13.7417 10.7533 13.875 10.7533C14.0083 10.7533 14.1333 10.7723 14.25 10.8103C14.3667 10.8483 14.475 10.9128 14.575 11.0039L19.675 15.6516C19.775 15.7427 19.8458 15.8414 19.8875 15.9478C19.9292 16.0541 19.95 16.168 19.95 16.2895C19.95 16.411 19.9292 16.5249 19.8875 16.6312C19.8458 16.7375 19.775 16.8363 19.675 16.9274L17.55 18.8639C17.45 18.955 17.3417 19.0196 17.225 19.0576C17.1083 19.0955 16.9833 19.1145 16.85 19.1145ZM16.85 16.9502L17.575 16.2895L13.9 12.9405L13.175 13.6012L16.85 16.9502ZM3.125 19.1373C2.99167 19.1373 2.8625 19.1145 2.7375 19.069C2.6125 19.0234 2.5 18.955 2.4 18.8639L0.3 16.9502C0.2 16.8591 0.125 16.7565 0.075 16.6426C0.025 16.5287 0 16.411 0 16.2895C0 16.168 0.025 16.0541 0.075 15.9478C0.125 15.8414 0.2 15.7427 0.3 15.6516L5.6 10.8217H7.725L8.575 10.0471L4.45 6.28797H3.025L0 3.53129L2.825 0.956865L5.85 3.71355V5.01215L9.975 8.77126L12.875 6.12849L11.8 5.14885L13.2 3.87303H10.375L9.675 3.23512L13.225 0L13.925 0.63791V3.21233L15.325 1.93651L18.875 5.17163C19.1583 5.42983 19.375 5.72221 19.525 6.04875C19.675 6.3753 19.75 6.72084 19.75 7.08536C19.75 7.44988 19.675 7.79921 19.525 8.13335C19.375 8.4675 19.1583 8.76367 18.875 9.02187L16.75 7.08536L15.35 8.36118L14.3 7.40431L9.125 12.1203V14.034L3.825 18.8639C3.725 18.955 3.61667 19.0234 3.5 19.069C3.38333 19.1145 3.25833 19.1373 3.125 19.1373ZM3.125 16.9502L7.375 13.0772V12.4165H6.65L2.4 16.2895L3.125 16.9502ZM3.125 16.9502L2.4 16.2895L2.775 16.6084L3.125 16.9502Z" fill="#FFB528"/>
</svg>
